<svg id="Layer_1" enable-background="new 0 0 512.093 512.093" height="512" viewBox="0 0 512.093 512.093" width="512" xmlns="http://www.w3.org/2000/svg"><g><path d="m341.537 194.957v176.089l130.652-68.022 2.618-28.044z" fill="#4895ff"/><path d="m341.537 194.957v176.089l130.652-68.022 2.618-28.044z" fill="#424ede"/><path d="m37.417 234.899 2.2 27.974 130.939 68.171v-176.09z" fill="#4895ff"/><path d="m256.081 0-115.525 82.197v27.935l115.526 70.705 115.455-70.705v-27.932z" fill="#5ecef4"/><path d="m371.537 110.132v-27.932l-115.456-82.2v180.837h.001z" fill="#4895ff"/><path d="m474.807 274.98-133.27 62.244v159.869h112.522z" fill="#5ecef4"/><path d="m474.807 274.98-133.27 62.244v159.869h112.522z" fill="#4895ff"/><path d="m37.417 234.899 20.636 262.194h112.503v-199.871z" fill="#5ecef4"/><path d="m371.537 82.2-115.46 63.462-115.521-63.465v414.896h230.981z" fill="#beebfa"/><path d="m371.537 82.2-115.456 63.459v351.434h115.456z" fill="#5ecef4"/><g><path d="m23.096 482.093h465.9v30h-465.9z" fill="#4895ff"/></g><path d="m256.081 482.093h232.916v30h-232.916z" fill="#424ede"/></g></svg>