<svg id="Capa_1" enable-background="new 0 0 512 512" height="512" viewBox="0 0 512 512" width="512" xmlns="http://www.w3.org/2000/svg"><g><path d="m241.29 15v39.18h-103.81v-39.18c0-8.28 6.72-15 15-15h73.81c8.28 0 15 6.72 15 15z" fill="#dbebfc"/><path d="m183.96 0c-8.55 0-15.49 6.93-15.49 15.5v28.68h-30.99v-29.18c0-8.28 6.72-15 15-15z" fill="#c9e2fb"/><path d="m101.056 85.83h309.889v384.522h-309.889z" fill="#d79b7a"/><path d="m410.944 85.83v30.659h-251.01c-3.993 0-7.231 3.237-7.231 7.231v346.632h-51.648v-384.522z" fill="#d08b61"/><path d="m431.604 298.58c5.702 0 10.33-5.785 10.33-12.912v-25.824c0-7.14-4.628-12.912-10.33-12.912h-351.208c-5.702 0-10.33 5.772-10.33 12.912v25.824c0 7.127 4.628 12.912 10.33 12.912z" fill="#ecf6fe"/><path d="m132.044 298.58h-51.648c-5.702 0-10.33-5.785-10.33-12.912v-25.824c0-7.138 4.628-12.912 10.33-12.912h51.648c-5.702 0-10.33 5.774-10.33 12.912v25.824c.001 7.127 4.628 12.912 10.33 12.912z" fill="#dbebfc"/><path d="m325.874 292.578c0 38.59-31.284 69.874-69.874 69.874s-69.874-31.284-69.874-69.874c0-41.612 48.35-100.357 64.611-118.937 2.789-3.187 7.736-3.187 10.526 0 16.261 18.58 64.611 77.325 64.611 118.937z" fill="#fef48b"/><path d="m271.494 360.723c-4.989 1.126-10.175 1.725-15.494 1.725-38.591 0-69.87-31.278-69.87-69.87 0-41.614 48.346-100.36 64.607-118.941 2.791-3.189 7.74-3.184 10.531.005 2.666 3.048 6.194 7.175 10.227 12.128-20.587 25.256-54.375 72.018-54.375 106.808-.001 33.272 23.241 61.1 54.374 68.145z" fill="#fef056"/><path d="m441.93 470.35v31.65c0 5.52-4.47 10-10 10h-351.86c-5.53 0-10-4.48-10-10v-31.65c0-5.52 4.47-10 10-10h351.86c5.53 0 10 4.48 10 10z" fill="#ecf6fe"/><path d="m132.04 512h-51.97c-5.53 0-10-4.48-10-10v-31.65c0-5.52 4.47-10 10-10h51.97c-5.7 0-10.33 4.63-10.33 10.33v30.99c0 5.7 4.63 10.33 10.33 10.33z" fill="#dbebfc"/><path d="m441.93 54.18v31.65c0 5.52-4.47 10-10 10h-351.86c-5.53 0-10-4.48-10-10v-31.65c0-5.52 4.47-10 10-10h351.86c5.53 0 10 4.48 10 10z" fill="#ecf6fe"/><path d="m132.04 95.83h-51.97c-5.53 0-10-4.48-10-10v-31.65c0-5.52 4.47-10 10-10h51.97c-5.7 0-10.33 4.63-10.33 10.33v30.99c0 5.7 4.63 10.33 10.33 10.33z" fill="#dbebfc"/></g></svg>