<svg viewBox="0 0 512.00003 512.00003" xmlns="http://www.w3.org/2000/svg" xmlns:xlink="http://www.w3.org/1999/xlink"><linearGradient id="a"><stop offset="0" stop-color="#acfcd9"/><stop offset="1" stop-color="#53d6be"/></linearGradient><linearGradient id="b" gradientUnits="userSpaceOnUse" x1="139.85207952" x2="531.3597972" xlink:href="#a" y1="139.85207952" y2="531.3597972"/><linearGradient id="c" gradientTransform="matrix(-1.00392 0 0 -1.00392 1580.173 -1624.345)" gradientUnits="userSpaceOnUse" x1="1227.23" x2="1536.565" xlink:href="#a" y1="-1964.77" y2="-1655.435"/><linearGradient id="d"><stop offset="0" stop-color="#53d6be" stop-opacity="0"/><stop offset=".2513" stop-color="#51b4a7" stop-opacity=".25098"/><stop offset=".5767" stop-color="#508d8e" stop-opacity=".576471"/><stop offset=".8378" stop-color="#4e767f" stop-opacity=".839216"/><stop offset="1" stop-color="#4e6d79"/></linearGradient><linearGradient id="e" gradientUnits="userSpaceOnUse" x1="280.269366" x2="-.828234" xlink:href="#d" y1="311.58363864" y2="183.08187864"/><linearGradient id="f" gradientUnits="userSpaceOnUse" x1="436.75639992" x2="104.45887992" xlink:href="#d" y1="338.02689144" y2="215.54865144"/><linearGradient id="g"><stop offset="0" stop-color="#62e1fb"/><stop offset="1" stop-color="#00a2f3"/></linearGradient><linearGradient id="h" gradientUnits="userSpaceOnUse" x1="203.7355248" x2="203.7355248" xlink:href="#g" y1="176.54836728" y2="341.31171768"/><linearGradient id="i" gradientUnits="userSpaceOnUse" x1="332.7844212" x2="332.7844212" xlink:href="#g" y1="214.70535864" y2="342.25239072"/><path d="m512 256c0 141.386719-114.613281 256-256 256s-256-114.613281-256-256 114.613281-256 256-256 256 114.613281 256 256zm0 0" fill="url(#b)"/><path d="m459.0625 256c0 112.148438-90.914062 203.0625-203.0625 203.0625s-203.0625-90.914062-203.0625-203.0625 90.914062-203.0625 203.0625-203.0625 203.0625 90.914062 203.0625 203.0625zm0 0" fill="url(#c)"/><path d="m485.425781 369.714844c-17.757812 35.757812-43.628906 66.769531-75.214843 90.632812-23.1875 17.539063-49.453126 31.203125-77.84375 40.078125l-174.960938-175.207031c-.132812-.109375-.273438-.21875-.402344-.328125-.621094-.511719-1.246094-1.027344-1.847656-1.558594-.761719-.671875-1.496094-1.363281-2.199219-2.085937-10.621093-10.734375-15.921875-26.777344-15.921875-48.128906v-86.457032c0-.984375.011719-1.957031.039063-2.914062.019531-.792969.042969-1.5625.082031-2.335938.058594-1.257812.128906-2.492187.21875-3.714844.242188-3.03125.605469-5.945312 1.085938-8.734374 0-.03125 0-.0625.011718-.082032.1875-1.09375.398438-2.167968.628906-3.222656.121094-.519531.234376-1.042969.363282-1.554688.070312-.332031.152344-.664062.25-.996093.070312-.308594.152344-.621094.242187-.933594.101563-.410156.21875-.820313.339844-1.222656.132813-.472657.28125-.945313.421875-1.40625.019531-.070313.042969-.140625.0625-.210938.148438-.460937.300781-.921875.460938-1.375.140624-.410156.28125-.824219.429687-1.226562.082031-.21875.164063-.441407.253906-.660157.117188-.332031.25-.652343.378907-.972656 0 0 0-.011718.011718-.023437.179688-.460938.371094-.921875.570313-1.375.191406-.460938.394531-.914063.605469-1.363281.410156-.894532.851562-1.769532 1.304687-2.632813.21875-.429687.460937-.851563.703125-1.261719.230469-.421875.46875-.835937.722656-1.246094.25-.402343.5-.804687.761719-1.203124.230469-.363282.460937-.726563.710937-1.074219.03125-.0625.070313-.113281.113282-.164063.25-.359375.511718-.722656.761718-1.082031.011719-.011719.011719-.011719.019532-.019531.261718-.351563.523437-.695313.785156-1.035156.378906-.492188.773438-.972657 1.171875-1.445313.203125-.242187.402344-.480469.613281-.714844.050782-.058593.109375-.128906.179688-.199219.261718-.300781.535156-.59375.804687-.882812.964844-1.023438 1.957031-2 3.011719-2.921875 12.078125-10.691406 28.230469-16.042969 48.429688-16.042969 20.199218 0 36.390624 5.351563 48.578124 16.042969l4.1875 4.1875c.03125.039063.058594.070313.089844.097656l42.296875 42.285157 68.765625 68.769531zm0 0" fill="url(#e)"/><path d="m503.769531 320.652344c-4.460937 17.117187-10.632812 33.53125-18.34375 49.0625-17.757812 35.757812-43.628906 66.769531-75.214843 90.632812l-123.902344-123.269531c-.894532-.574219-1.605469-1.207031-2.160156-1.890625-.1875-.230469-.351563-.460938-.5-.699219-.292969-.484375-.511719-.984375-.664063-1.507812-.109375-.390625-.179687-.804688-.210937-1.222657-.007813-.140624-.007813-.28125-.007813-.421874v-22.289063c0-3.441406.621094-6.847656 1.875-10.21875.3125-.84375.664063-1.675781 1.054687-2.519531.785157-1.667969 1.71875-3.335938 2.8125-4.992188.269532-.421875.550782-.832031.851563-1.242187.292969-.414063.601563-.824219.914063-1.234375.933593-1.238282 1.917968-2.449219 2.933593-3.644532 4.414063-5.160156 9.605469-9.921874 15.550781-14.277343l16.222657-11.804688-32.628907-34.132812c-.007812 0-.007812-.011719-.007812-.011719-2.058594-.640625-3.65625-1.828125-4.8125-3.5625-.167969-.242188-.320312-.503906-.46875-.773438-.152344-.273437-.28125-.554687-.414062-.84375-.097657-.222656-.191407-.441406-.269532-.671874-.050781-.113282-.089844-.222657-.121094-.332032-.101562-.292968-.191406-.582031-.269531-.882812 0-.011719 0-.011719 0-.011719-.082031-.289063-.152343-.59375-.210937-.902344-.101563-.414062-.171875-.832031-.230469-1.265625-.050781-.332031-.09375-.671875-.121094-1.023437-.019531-.101563-.019531-.210938-.03125-.3125-.03125-.359375-.058593-.730469-.070312-1.105469-.019531-.429688-.03125-.871094-.03125-1.324219 0-11.746093 4.480469-21.394531 13.445312-28.933593.148438-.128907.308594-.257813.46875-.390626 9.277344-7.589843 20.351563-11.382812 33.230469-11.382812 13.644531 0 25.257812 4.277344 34.847656 12.820312l3.734375 3.734376zm0 0" fill="url(#f)"/><path d="m256.441406 140.738281c-.03125-.027343-.058594-.058593-.089844-.097656-1.304687-1.488281-2.699218-2.882813-4.1875-4.1875-12.1875-10.691406-28.378906-16.042969-48.578124-16.042969-20.199219 0-36.351563 5.351563-48.429688 16.042969-1.054688.921875-2.046875 1.898437-3.011719 2.921875-.269531.289062-.542969.582031-.804687.882812-.070313.070313-.128906.140626-.179688.199219-.210937.234375-.410156.472657-.613281.714844-.398437.472656-.792969.953125-1.171875 1.445313-.261719.339843-.523438.683593-.785156 1.035156-.007813.007812-.007813.007812-.019532.019531-.25.359375-.511718.722656-.761718 1.082031-.042969.050782-.082032.101563-.113282.164063-.25.347656-.480468.710937-.710937 1.074219-.261719.398437-.511719.800781-.761719 1.203124-.253906.410157-.492187.824219-.722656 1.246094-.242188.410156-.484375.832032-.703125 1.261719-.453125.863281-.894531 1.738281-1.304687 2.632813-.210938.449218-.414063.902343-.605469 1.363281-.199219.453125-.390625.914062-.570313 1.375-.011718.011719-.011718.023437-.011718.023437-.128907.320313-.261719.640625-.378907.972656-.089843.21875-.171875.441407-.253906.660157-.148437.402343-.300781.816406-.429687 1.226562-.160157.453125-.3125.914063-.460938 1.375-.019531.070313-.042969.140625-.0625.210938-.140625.460937-.289062.933593-.421875 1.40625-.121094.402343-.238281.8125-.339844 1.222656-.089843.3125-.171875.625-.242187.933594-.097656.332031-.179688.664062-.25.996093-.128906.511719-.242188 1.035157-.363282 1.554688-.230468 1.054688-.441406 2.128906-.628906 3.222656-.011718.019532-.011718.050782-.011718.082032-.492188 2.78125-.851563 5.703124-1.085938 8.734374-.089844 1.222657-.160156 2.457032-.21875 3.714844-.039062.773438-.0625 1.542969-.082031 2.335938-.027344.957031-.039063 1.929687-.039063 2.914062v86.457032c0 21.351562 5.300782 37.394531 15.921875 48.128906.714844.722656 1.445313 1.414062 2.199219 2.078125.601562.53125 1.214844 1.054687 1.847656 1.566406.128906.109375.269532.21875.402344.328125 11.804688 9.4375 27.203125 14.148438 46.179688 14.148438 20.199218 0 36.390624-5.34375 48.578124-16.042969 12.179688-10.691407 18.273438-27.429688 18.273438-50.207031v-86.457032c0-19.929687-4.667969-35.238281-13.996094-45.921875zm-17.496094 132.378907c0 12.878906-3.074218 22.488281-9.21875 28.820312-6.144531 6.335938-14.855468 9.507812-26.140624 9.507812-23.371094 0-35.058594-12.777343-35.058594-38.328124v-86.457032c0-25.550781 11.6875-38.320312 35.058594-38.320312 11.285156 0 19.996093 3.160156 26.140624 9.507812 6.144532 6.332032 9.21875 15.941406 9.21875 28.8125zm0 0" fill="url(#h)"/><path d="m380.394531 320.851562c-1.613281-2.066406-3.492187-3.101562-5.628906-3.101562h-67.625v-8.722656c0-4.738282 2.570313-9.636719 7.710937-14.6875 5.128907-5.050782 11.34375-10.070313 18.621094-15.039063 7.289063-4.96875 14.566406-10.25 21.855469-15.839843 4.46875-3.425782 8.523437-7.308594 12.175781-11.667969 2.3125-2.738281 4.460938-5.660157 6.445313-8.761719 5.140625-8.035156 7.710937-16.636719 7.710937-25.824219 0-11.652343-3.554687-21.453125-10.640625-29.402343-1.144531-1.296876-2.398437-2.539063-3.734375-3.734376-9.589844-8.542968-21.203125-12.820312-34.847656-12.820312-12.878906 0-23.953125 3.792969-33.230469 11.382812-.160156.132813-.320312.261719-.46875.390626-8.964843 7.539062-13.445312 17.1875-13.445312 28.933593 0 .453125.011719.894531.03125 1.324219.011719.375.039062.746094.070312 1.105469.011719.101562.011719.210937.03125.3125.027344.351562.070313.691406.121094 1.023437.058594.433594.128906.851563.230469 1.265625.058594.308594.128906.613281.210937.902344v.011719c.078125.300781.167969.589844.269531.882812.03125.109375.070313.21875.121094.332032.078125.230468.171875.449218.269532.671874.132812.289063.261718.570313.414062.84375.148438.269532.300781.53125.46875.773438 1.136719 1.746094 2.742188 2.941406 4.8125 3.5625 0 0 0 .011719.007812.011719 1.175782.371093 2.511719.550781 3.984376.550781 3.828124 0 6.929687-.914062 9.308593-2.742188 2.378907-1.824218 3.574219-3.964843 3.574219-6.394531 0-7.316406 2.058594-12.878906 6.203125-16.683593.070313-.070313.152344-.140626.230469-.210938 4.289062-3.804688 9.890625-5.714844 16.785156-5.714844 8.132812 0 14.296875 2.410156 18.511719 7.230469 4.21875 4.828125 6.328125 10.449219 6.328125 16.875 0 5.792969-2.089844 11.597656-6.277344 17.398437-.449219.632813-.921875 1.253907-1.425781 1.886719-5.140625 6.425781-11.382813 12.320313-18.742188 17.679688l-5.851562 4.257812-16.222657 11.804688c-5.945312 4.355469-11.136718 9.117187-15.550781 14.277343-1.027343 1.195313-2.007812 2.40625-2.941406 3.644532-.3125.410156-.613281.820312-.90625 1.234375-.300781.410156-.582031.820312-.851563 1.242187-1.09375 1.65625-2.027343 3.324219-2.8125 4.992188-.390624.84375-.742187 1.675781-1.054687 2.519531-1.253906 3.371094-1.875 6.777344-1.875 10.21875v22.289063c0 .140624 0 .28125.007813.421874.03125.417969.101562.832032.210937 1.222657.140625.523437.363281 1.023437.664063 1.507812.148437.238281.3125.46875.5.699219.554687.683594 1.265624 1.316406 2.160156 1.890625 2.347656 1.523437 4.75 2.289063 7.1875 2.289063h81.316406c2.128906 0 3.996094-1.105469 5.59375-3.335938 1.597656-2.21875 2.398438-4.789062 2.398438-7.699219 0-2.910156-.800782-5.402343-2.410157-7.480469zm0 0" fill="url(#i)"/></svg>