<svg id="Layer_1" enable-background="new 0 0 128 128" height="512" viewBox="0 0 128 128" width="512" xmlns="http://www.w3.org/2000/svg"><g><g><g><path d="m66 10.329c-30.697 0-55.671 24.974-55.671 55.671s24.974 55.671 55.671 55.671 55.671-24.974 55.671-55.671-24.974-55.671-55.671-55.671zm45.83 55.671c0 25.271-20.56 45.83-45.83 45.83s-45.83-20.559-45.83-45.83 20.56-45.83 45.83-45.83 45.83 20.56 45.83 45.83z" fill="#e6e7e8"/></g><g><path d="m99.208 50.138c0-7.283-5.925-13.208-13.208-13.208-6.855 0-12.503 5.25-13.144 11.94-2.002-1.223-4.344-1.94-6.856-1.94s-4.854.718-6.856 1.94c-.641-6.69-6.289-11.94-13.144-11.94-7.283 0-13.208 5.925-13.208 13.208 0 3.807 1.629 7.233 4.214 9.645-5.398 2.332-9.187 7.704-9.187 13.948v9.362c0 1.09.887 1.977 1.977 1.977h18.023v8.023c0 1.09.887 1.977 1.977 1.977h32.408c1.09 0 1.977-.887 1.977-1.977v-8.023h18.023c1.09 0 1.977-.887 1.977-1.977v-9.362c0-6.244-3.789-11.616-9.187-13.948 2.586-2.412 4.214-5.838 4.214-9.645z" fill="#e6e7e8"/></g></g><g><g><g><path d="m62 7.329c-30.194 0-54.671 24.477-54.671 54.671s24.477 54.671 54.671 54.671 54.671-24.477 54.671-54.671-24.477-54.671-54.671-54.671zm0 101.501c-25.863 0-46.83-20.966-46.83-46.83 0-25.863 20.966-46.83 46.83-46.83s46.83 20.966 46.83 46.83c0 25.863-20.966 46.83-46.83 46.83z" fill="#0089ef"/></g><g><g><path d="m62 10.329c29.691 0 53.836 23.672 54.633 53.171.013-.5.038-.997.038-1.5 0-30.194-24.477-54.671-54.671-54.671s-54.671 24.477-54.671 54.671c0 .503.024 1 .038 1.5.797-29.499 24.942-53.171 54.633-53.171z" fill="#fff"/></g></g></g><g><g><path d="m49.006 56.127c-1.984 1.394-4.396 2.219-7.006 2.219-2.609 0-5.021-.825-7.006-2.219-5.88 1.733-10.175 7.164-10.175 13.605v9.362c0 .539.437.977.977.977h32.409c.539 0 .977-.437.977-.977v-9.362c-.001-6.441-4.296-11.872-10.176-13.605z" fill="#ffd7e5"/><circle cx="42" cy="46.138" fill="#fff" r="12.208"/></g><g><path d="m89.006 56.127c-1.984 1.394-4.396 2.219-7.006 2.219-2.609 0-5.021-.825-7.006-2.219-5.88 1.733-10.175 7.164-10.175 13.605v9.362c0 .539.437.977.977.977h32.409c.539 0 .977-.437.977-.977v-9.362c-.001-6.441-4.296-11.872-10.176-13.605z" fill="#fa759e"/><circle cx="82" cy="46.138" fill="#fff" r="12.208"/></g><g><path d="m69.006 66.127c-1.984 1.394-4.396 2.219-7.006 2.219-2.609 0-5.021-.825-7.006-2.219-5.88 1.733-10.175 7.164-10.175 13.605v9.362c0 .539.437.977.977.977h32.409c.539 0 .977-.437.977-.977v-9.362c-.001-6.441-4.296-11.872-10.176-13.605z" fill="#6dc9f7"/><g><circle cx="62" cy="56.138" fill="#fff" r="12.208"/><g fill="#3a2c60"><path d="m62 14.17c-26.374 0-47.83 21.456-47.83 47.83s21.456 47.83 47.83 47.83 47.83-21.457 47.83-47.83-21.456-47.83-47.83-47.83zm0 93.66c-25.271 0-45.83-20.559-45.83-45.83s20.56-45.83 45.83-45.83 45.83 20.559 45.83 45.83-20.56 45.83-45.83 45.83z"/><path d="m104.174 95.2c-1.614 2.048-3.396 3.999-5.298 5.797-.401.38-.418 1.013-.039 1.414.197.208.462.313.727.313.247 0 .494-.091.688-.273 1.971-1.866 3.819-3.888 5.493-6.012.342-.434.268-1.063-.166-1.404-.435-.344-1.063-.268-1.405.165z"/><path d="m62 6.329c-30.697 0-55.671 24.974-55.671 55.671s24.974 55.671 55.671 55.671c12.811 0 25.317-4.458 35.216-12.552.428-.35.491-.979.142-1.407-.351-.429-.98-.492-1.407-.141-9.543 7.803-21.6 12.1-33.95 12.1-29.595 0-53.672-24.076-53.672-53.671 0-29.594 24.077-53.671 53.671-53.671s53.671 24.077 53.671 53.671c0 10.825-3.207 21.257-9.274 30.168-.312.457-.193 1.079.264 1.39.458.313 1.079.192 1.389-.264 6.295-9.245 9.622-20.066 9.622-31.294-.001-30.697-24.975-55.671-55.672-55.671z"/><path d="m90.983 55.794c2.592-2.413 4.225-5.843 4.225-9.655 0-7.283-5.925-13.208-13.208-13.208-6.856 0-12.494 5.255-13.133 11.947-2.004-1.228-4.35-1.948-6.867-1.948s-4.863.72-6.867 1.947c-.639-6.692-6.277-11.947-13.133-11.947-7.283 0-13.208 5.925-13.208 13.208 0 3.812 1.633 7.242 4.225 9.655-5.401 2.33-9.198 7.692-9.198 13.938v9.362c0 1.09.887 1.977 1.977 1.977h18.023v8.023c0 1.09.887 1.977 1.977 1.977h32.408c1.09 0 1.977-.887 1.977-1.977v-8.023h18.023c1.09 0 1.977-.887 1.977-1.977v-9.362c0-6.245-3.797-11.608-9.198-13.937zm-20.191-9.656c0-6.18 5.028-11.208 11.208-11.208s11.208 5.028 11.208 11.208-5.028 11.208-11.208 11.208c-2.583 0-4.954-.89-6.851-2.364-.3-3.434-1.921-6.488-4.349-8.666-.001-.059-.008-.118-.008-.178zm2.416 10c0 6.18-5.028 11.208-11.208 11.208s-11.208-5.028-11.208-11.208 5.028-11.208 11.208-11.208 11.208 5.028 11.208 11.208zm-42.416-10c0-6.18 5.028-11.208 11.208-11.208s11.208 5.028 11.208 11.208c0 .06-.007.118-.008.178-2.428 2.178-4.049 5.231-4.349 8.666-1.897 1.474-4.268 2.364-6.851 2.364-6.18 0-11.208-5.028-11.208-11.208zm13.053 32.943-18.026.013v-9.362c0-5.82 3.794-10.757 9.034-12.503 2.063 1.334 4.513 2.117 7.146 2.117 2.513 0 4.856-.718 6.856-1.945.315 3.305 1.859 6.249 4.161 8.392-5.211 2.248-8.916 7.323-9.171 13.288zm34.336 9.989-32.361.023v-9.362c0-5.82 3.794-10.757 9.034-12.503 2.063 1.334 4.513 2.117 7.146 2.117s5.084-.783 7.146-2.117c5.24 1.746 9.034 6.683 9.034 12.503v9.339zm20-10-18.026.013c-.253-5.966-3.959-11.042-9.172-13.29 2.302-2.143 3.846-5.087 4.161-8.392 2 1.226 4.343 1.945 6.856 1.945 2.634 0 5.084-.783 7.146-2.117 5.24 1.746 9.034 6.683 9.034 12.503v9.338z"/></g></g></g></g></g></g></svg>