<svg id="Layer_1" height="512" viewBox="0 0 512 512" width="512" xmlns="http://www.w3.org/2000/svg" data-name="Layer 1"><path d="m208 246.38v240.92l-192-110.85v-240.9l.02-.01z" fill="#e29454"/><path d="m47 153.55.02-.01-31-18-.02.01v240.9l31 17.898z" fill="#ce834a"/><path d="m208 24.7 76.19 43.99-191.98 110.84h-.01l-76.18-43.99z" fill="#e29454"/><path d="m239 42.7-31-18-191.98 110.84 31.086 17.951z" fill="#e08b4b"/><path d="m399.98 135.54-191.98 110.84v240.92l108.96-62.9 83.04-144.18v-144.67z" fill="#ce834a"/><path d="m141.14 207.78-.34.2v150.5l-25.35-28.8-23.25 9.6v-159.75h.01z" fill="#ed6337"/><path d="m333.13 96.94-191.99 110.84-48.93-28.25 191.98-110.84z" fill="#c24e38"/><path d="m208 246.38-66.86-38.6 191.99-110.84 66.85 38.6z" fill="#e29454"/><g fill="#e1b7a3"><path d="m40.828 377.366a6 6 0 0 1 -6-6v-25.92a6 6 0 0 1 12 0v25.92a6 6 0 0 1 -6 6z"/><path d="m69.252 394a6 6 0 0 1 -6-6v-23.35a6 6 0 0 1 12 0v23.35a6 6 0 0 1 -6 6z"/><path d="m97.677 410.407a6 6 0 0 1 -6-6v-20.56a6 6 0 0 1 12 0v20.56a6 6 0 0 1 -6 6z"/><path d="m126.1 426.818a6 6 0 0 1 -6-6v-17.771a6 6 0 0 1 12 0v17.771a6 6 0 0 1 -6 6z"/><path d="m154.524 443.606a6 6 0 0 1 -6-6v-15.36a6 6 0 0 1 12 0v15.36a6 6 0 0 1 -6 6z"/></g><path d="m244.852 292.88a6 6 0 0 0 5.29-3.16l5.618-10.451v64.149a6 6 0 0 0 12 0v-72.886l7.538 7.986a6 6 0 1 0 8.726-8.239l-17.9-18.963a6 6 0 0 0 -9.648 1.279l-16.9 31.443a6 6 0 0 0 5.281 8.842z" fill="#c24e38"/><path d="m284.857 356.529a6 6 0 0 0 -8.2-2.2l-31.887 18.409a6 6 0 1 0 6 10.393l31.887-18.409a6 6 0 0 0 2.2-8.193z" fill="#c24e38"/><path d="m316.96 424.4a96 96 0 1 1 83.04 47.82 95.391 95.391 0 0 1 -83.04-47.82z" fill="#50dd5a"/><path d="m459.37 325.18a7.159 7.159 0 0 1 -2.03 5.04l-29.55 30.32 16.47 56.43a4.885 4.885 0 0 1 -1.57 5.62 5 5 0 0 1 -6.55-.53l-15.52-15.52-8.54-8.54-10.6-10.6-32.95 33.91 15.17 25.48a5.648 5.648 0 0 1 .62 1.37 6.213 6.213 0 0 1 -1.93 6.24l-59.76-59.76c2.18-2.18 4.85-2.65 7.11-1.61l25.98 15.48 34.07-32.8-10.82-10.82-8.53-8.54-15.47-15.46a4.881 4.881 0 0 1 5.09-8.12l56.76 16.66 30.39-29.37a7.176 7.176 0 0 1 12.16 5.12z" fill="#e5f5fd"/></svg>